<svg t="1583217849054" class="icon" viewBox="0 0 1024 1024" version="1.1" xmlns="http://www.w3.org/2000/svg" p-id="10559" width="48" height="48"><path d="M511.5 102.5c-225.3 0-409.6 184.3-409.6 409.6s184.3 409.6 409.6 409.6 409.6-184.3 409.6-409.6-184.3-409.6-409.6-409.6z m-56.3 716.8h-30.7v-30.7h30.7v30.7z m0-51.2h-30.7v-30.7h30.7v30.7z m76.8 87.1h-46.1v-41h41v41h5.1z m0-61.5h-46.1v-41h41v41h5.1z m56.3 25.6h-30.7v-30.7h30.7v30.7z m0-51.2h-30.7v-30.7h30.7v30.7z m0-302.1v240.6H424.4V466H306.7l204.8-245.8L716.3 466h-128z m0 0" fill="#83CDD9" p-id="10560"></path></svg>