<svg t="1583163385753" class="icon" viewBox="0 0 1024 1024" version="1.1" xmlns="http://www.w3.org/2000/svg" p-id="2737" width="32" height="32"><path d="M241.966 853.372L509.73 714.395a18 18 0 0 1 16.858 0.145l255.52 138.25V159.218H241.967v694.154z m-9.708 45.598c-11.982 6.22-26.292-2.476-26.292-15.976V141.218c0-9.941 8.059-18 18-18H800.11c9.94 0 18 8.059 18 18v741.776c0 13.636-14.573 22.32-26.566 15.832L517.848 750.743 232.258 898.97z" fill="#333333" p-id="2738"></path><path d="M513.001 456.652a15 15 0 0 1 13.961 0l45.034 23.677-8.6-50.15a15 15 0 0 1 4.313-13.277l36.435-35.518-50.351-7.317a15 15 0 0 1-11.294-8.206l-22.517-45.627-22.517 45.627a15 15 0 0 1-11.294 8.206l-50.352 7.317 36.435 35.518a15 15 0 0 1 4.314 13.276l-8.6 50.151L513 456.652z m-57.975 64.375c-11.005 5.786-23.866-3.559-21.765-15.812l12.406-72.336-52.551-51.227c-8.903-8.678-3.99-23.798 8.313-25.585l72.623-10.554 32.478-65.812c5.503-11.149 21.4-11.149 26.903 0l32.478 65.812 72.623 10.554c12.303 1.787 17.216 16.907 8.314 25.585l-52.552 51.227 12.406 72.336c2.102 12.253-10.76 21.598-21.765 15.812l-64.955-34.152-64.956 34.152z" fill="#007BFF" p-id="2739"></path></svg>