<svg t="1583167818845" class="icon" viewBox="0 0 1024 1024" version="1.1" xmlns="http://www.w3.org/2000/svg" p-id="12185" width="32" height="32"><path d="M403.214072 374.559264l149.414351 0c12.485309 0 22.514491-10.029182 22.514491-22.514491s-10.029182-22.514491-22.514491-22.514491L403.214072 329.530282c-12.485309 0-22.514491 10.029182-22.514491 22.514491S390.728763 374.559264 403.214072 374.559264z" p-id="12186"></path><path d="M623.242055 485.084949 352.044773 485.084949c-12.485309 0-22.514491 10.029182-22.514491 22.514491s10.029182 22.514491 22.514491 22.514491l271.197282 0c12.485309 0 22.514491-10.029182 22.514491-22.514491S635.727364 485.084949 623.242055 485.084949z" p-id="12187"></path><path d="M621.195283 633.475914 349.998001 633.475914c-12.485309 0-22.514491 10.029182-22.514491 22.514491s10.029182 22.514491 22.514491 22.514491l271.197282 0c12.485309 0 22.514491-10.029182 22.514491-22.514491S633.680592 633.475914 621.195283 633.475914z" p-id="12188"></path><path d="M763.445932 226.168299c0-28.245453-22.923846-51.169298-51.169298-51.169298L264.03358 174.999001c-28.245453 0-51.169298 22.923846-51.169298 51.169298l0 589.470318c0 28.245453 22.923846 51.169298 51.169298 51.169298l448.243054 0c28.245453 0 51.169298-22.923846 51.169298-51.169298L763.445932 226.168299zM718.41695 815.638617c0 3.377174-2.763142 6.140316-6.140316 6.140316L264.03358 821.778933c-3.377174 0-6.140316-2.763142-6.140316-6.140316L257.893264 226.168299c0-3.377174 2.763142-6.140316 6.140316-6.140316l448.243054 0c3.377174 0 6.140316 2.763142 6.140316 6.140316L718.41695 815.638617z" p-id="12189"></path></svg>