<svg t="1583158455777" class="icon" viewBox="0 0 1024 1024" version="1.1" xmlns="http://www.w3.org/2000/svg" p-id="2826" width="16" height="16"><path d="M496.993103 912.772414c-43.255172 0-78.565517-35.310345-78.565517-78.565517V799.77931c-30.190345-7.415172-59.144828-19.244138-85.980689-35.133793l-24.011035 24.011035c-30.72 30.543448-80.507586 30.543448-111.051034 0-30.543448-30.72-30.543448-80.507586 0-111.051035l23.128275-23.128276c-16.41931-27.012414-28.777931-56.143448-36.546206-86.686896H151.834483c-43.255172 0-78.565517-35.310345-78.565517-78.565517s35.310345-78.565517 78.565517-78.565518h31.073103c7.591724-31.073103 19.597241-60.733793 36.193104-88.275862l-21.715862-21.715862c-30.72-30.72-30.72-80.507586 0-111.051034 30.72-30.72 80.507586-30.72 111.051034 0l21.362759 21.362758c27.542069-16.595862 57.202759-28.954483 88.452413-36.722758V143.889655C418.427586 100.634483 453.737931 65.324138 496.993103 65.324138S575.558621 100.634483 575.558621 143.889655V174.786207c31.073103 7.944828 60.38069 20.303448 87.746207 36.89931l22.245517-22.245517c30.543448-30.543448 80.507586-30.543448 111.051034 0 30.543448 30.72 30.543448 80.507586 0 111.051034l-22.951724 22.951725c16.066207 27.188966 27.895172 56.32 35.310345 87.04H842.151724c43.255172 0 78.565517 35.310345 78.565517 78.565517s-35.310345 78.565517-78.565517 78.565517h-34.074483c-7.768276 30.190345-19.773793 58.791724-35.84 85.451035l24.54069 24.540689c30.543448 30.72 30.543448 80.507586 0 111.051035-30.72 30.543448-80.507586 30.543448-111.051034 0l-24.717242-24.717242c-26.65931 15.889655-55.26069 27.718621-85.274483 35.310345v34.957242C575.558621 877.462069 540.248276 912.772414 496.993103 912.772414z m-169.489655-193.147586l12.005518 7.768275c30.543448 19.950345 64.264828 33.721379 100.104827 40.783449l14.124138 2.824827v63.028966c0 23.834483 19.42069 43.255172 43.255172 43.255172s43.255172-19.42069 43.255173-43.255172v-63.382069l14.124138-2.824828c35.486897-7.415172 68.855172-21.186207 99.222069-41.136551l12.005517-7.944828 44.844138 44.844138c16.948966 16.948966 44.314483 16.948966 61.086896 0 16.948966-16.948966 16.948966-44.314483 0-61.086897l-44.667586-44.667586 7.944828-12.005517c20.303448-30.366897 34.251034-63.911724 41.842758-99.398621l3.00138-13.947586H842.151724c23.834483 0 43.255172-19.42069 43.255173-43.255172s-19.42069-43.255172-43.255173-43.255173h-61.793103l-2.824828-14.300689c-7.062069-36.193103-20.833103-70.091034-40.96-100.987587l-7.768276-12.005517 42.902069-42.902069c16.948966-16.948966 16.948966-44.314483 0-61.086896-16.948966-16.948966-44.314483-16.948966-61.086896 0l-42.548966 42.548965-12.005517-8.121379c-31.073103-21.186207-65.324138-35.486897-101.693793-43.078621l-14.124138-2.824828V143.889655C540.248276 120.055172 520.827586 100.634483 496.993103 100.634483S453.737931 120.055172 453.737931 143.889655v58.968276l-14.124138 2.824828c-36.722759 7.238621-71.150345 21.53931-102.4 42.372413l-12.005517 7.944828-41.666207-41.666207c-16.948966-16.948966-44.314483-16.948966-61.086897 0-16.948966 16.948966-16.948966 44.314483 0 61.086897l41.842759 41.842758-7.944828 12.005518c-20.48 31.249655-34.604138 65.50069-41.842758 102.046896l-2.824828 14.30069H151.834483c-23.834483 0-43.255172 19.42069-43.255173 43.255172s19.42069 43.255172 43.255173 43.255173h60.380689l3.00138 13.947586c7.591724 36.016552 21.892414 69.914483 42.548965 100.634483l8.12138 12.005517-43.608276 43.608276c-16.948966 16.948966-16.948966 44.314483 0 61.086896 16.948966 16.948966 44.314483 16.948966 61.086896 0l44.137931-43.784827z" fill="#040000" p-id="2827"></path><path d="M496.110345 681.489655c-107.166897 0-194.206897-87.04-194.206897-194.206896s87.04-194.206897 194.206897-194.206897 194.206897 87.04 194.206896 194.206897-87.04 194.206897-194.206896 194.206896z m0-353.103448c-87.569655 0-158.896552 71.326897-158.896552 158.896552s71.326897 158.896552 158.896552 158.896551 158.896552-71.326897 158.896552-158.896551-71.326897-158.896552-158.896552-158.896552z" fill="#3A86B9" p-id="2828"></path></svg>