<svg t="1584459137986" class="icon" viewBox="0 0 1035 1024" version="1.1" xmlns="http://www.w3.org/2000/svg" p-id="2819" width="32" height="32"><path d="M1035.52 1024H0l74.56-448h123.2v64H128.96L75.52 960H960l-53.44-320h-68.8v-64h123.2l74.56 448zM517.76 448a128 128 0 1 1 128-128 128 128 0 0 1-128 128z m0-192a64 64 0 1 0 64 64 64 64 0 0 0-64-64z" fill="#707070" p-id="2820"></path><path d="M517.76 889.92L236.48 464A291.2 291.2 0 0 1 197.76 320a320 320 0 0 1 640 0A289.6 289.6 0 0 1 800 464c-18.88 29.12-256 385.6-256 385.6z m0-825.92a256 256 0 0 0-256 256 224 224 0 0 0 29.44 110.72l226.56 343.36c62.08-96 212.8-322.24 227.52-344.96a224 224 0 0 0 28.48-109.12 256 256 0 0 0-256-256z" fill="#707070" p-id="2821"></path></svg>